# xmcd
#
# Track frame offsets: 
#        150
#        27189
#        41493
#        91072
#        106337
#        122131
#        139141
#        156897
#        171762
#        184252
#
# Disc length: 2657 seconds
#
# Revision: 0
# Processed by: cddbd v1.5.2PL0 Copyright (c) Steve Scherf et al.
# Submitted via: ExactAudioCopy v0.99pb3
#
DISCID=7d0a5f0a
DTITLE=Little Bobby and The Storm - Down, Dirty and Mean
DYEAR=2007
DGENRE=blues
TTITLE0=Six Sring Telephone
TTITLE1=Down Town Girl
TTITLE2=Been a Long Day
TTITLE3=Honey Bee
TTITLE4=Nothing the Blues Can't Do
TTITLE5=Santa Blues
TTITLE6=Down Dirty and Mean
TTITLE7=I Got The Blues
TTITLE8=Brand New Old School
TTITLE9=Another Day (fFuturing the thruth)
EXTD=
EXTT0=
EXTT1=
EXTT2=
EXTT3=
EXTT4=
EXTT5=
EXTT6=
EXTT7=
EXTT8=
EXTT9=
PLAYORDER=
